<?xml version="1.0" encoding="iso-8859-1"?>
<!-- Generator: Adobe Illustrator 18.1.1, SVG Export Plug-In . SVG Version: 6.00 Build 0)  -->
<svg version="1.1" id="Capa_1" xmlns="http://www.w3.org/2000/svg" xmlns:xlink="http://www.w3.org/1999/xlink" x="0px" y="0px"
	 viewBox="0 0 92 92" style="enable-background:new 0 0 92 92;" xml:space="preserve">
<g>
	<path style="fill:#030104;" d="M89.469,9.173C87.751,9.779,2.864,39.692,1.193,40.281c-1.419,0.5-1.735,1.725-0.05,2.399
		c2.007,0.804,18.979,7.604,18.979,7.604H20.12l11.253,4.509c0,0,54.187-39.792,54.924-40.333c0.736-0.542,1.589,0.475,1.052,1.056
		C86.812,16.1,47.993,58.083,47.993,58.083c-0.002,0.001-0.002,0.002-0.002,0.003l-2.264,2.517l2.994,1.612v0.001
		c0,0,23.251,12.515,24.908,13.407c1.451,0.781,3.34,0.132,3.759-1.674c0.494-2.13,14.225-61.306,14.532-62.622
		C92.317,9.612,91.187,8.568,89.469,9.173z M31.27,81.809c0,1.235,0.693,1.578,1.655,0.704c1.254-1.137,14.245-12.796,14.245-12.796
		l-15.9-8.227C31.27,61.49,31.27,81.809,31.27,81.809z"/>
</g>
<g>
</g>
<g>
</g>
<g>
</g>
<g>
</g>
<g>
</g>
<g>
</g>
<g>
</g>
<g>
</g>
<g>
</g>
<g>
</g>
<g>
</g>
<g>
</g>
<g>
</g>
<g>
</g>
<g>
</g>
</svg>
